<svg xmlns="http://www.w3.org/2000/svg" viewBox="0 0 623.06639 623.1254"><path d="M543.0438,623.622H81.705c-1.4346-.36481-2.85348-.81524-4.30611-1.08175C33.89614,614.55866.55967,574.62272.55949,530.46257Q.55859,312.99245.65657,95.52239A101.20606,101.20606,0,0,1,2.95049,74.45966C12.12349,31.87725,51.24247.49687,94.729.49683Q312.1773.49661,529.62561.51593c3.01782.00045,6.04726.1667,9.0516.4582a95.072,95.072,0,0,1,82.80324,71.68053c.74354,2.99126,1.4291,5.99695,2.1416,8.99595V543.03572a10.19334,10.19334,0,0,0-.556,1.52033q-11.31084,57.05547-66.416,75.6396C552.23238,621.68668,547.58484,622.49659,543.0438,623.622ZM502.187,340.53844l.73809-.08095c-1.23881-11.25441-1.79168-22.63508-3.83633-33.7411-8.378-45.50714-30.52052-83.17248-66.05788-112.8016a183.78348,183.78348,0,0,0-74.215-37.51635A12.71288,12.71288,0,0,0,345.847,160.1002a12.56113,12.56113,0,0,0-3.02418,13.1389c1.70752,5.38836,5.74857,8.02977,11.08212,9.4148,27.375,7.109,51.52509,20.31667,71.543,40.23934,40.02839,39.838,56.273,88.01549,47.7778,143.93643-5.54021,36.46923-22.28089,67.535-49.35849,92.51736-37.12293,34.25046-81.168,48.63158-131.39385,42.83847-36.00971-4.15344-67.45688-18.91991-93.17106-44.42676-41.01-40.67938-57.36295-90.095-47.07027-146.99237,9.48052-52.40778,39.2376-90.75843,86.18575-115.75977a151.35063,151.35063,0,0,1,32.44891-12.43437,13.33345,13.33345,0,0,0,9.16786-18.24286c-2.809-6.5677-9.5906-9.28866-17.63871-7.07707a189.60424,189.60424,0,0,0-138.187,207.03023C129.82193,408.8732,149.13,446.827,181.61,477.80165A189.69581,189.69581,0,0,0,502.187,340.53844ZM299.03959,179.54633q0,35.1852-.01472,70.37037c-.00585,4.395,1.24591,8.23008,4.66354,11.09911,4.3109,3.619,9.20552,4.36491,14.29583,2.0003,5.20717-2.41893,7.7243-6.73268,7.72441-12.48677q.00129-68.52582.00041-137.05164c0-2.08083.06761-4.16457-.0178-6.242A13.14646,13.14646,0,0,0,312.8461,94.61141c-7.9648-.19692-13.7789,5.62557-13.79262,13.99725Q298.99551,144.07741,299.03959,179.54633Z" transform="translate(-0.55566 -0.49665)"/></svg>