<svg xmlns="http://www.w3.org/2000/svg" viewBox="0 0 623.62205 603.67165"><path d="M280.29764,613.64685c-5.10057-.359-10.19578-.8583-15.30258-1.05456-37.064-1.42453-74.15036-2.39422-111.19047-4.27977-38.05033-1.93707-61.71781-23.70442-68.25541-61.6706-9.335-54.21168-.48391-105.72333,23.37175-154.89627,4.6128-9.5082,9.98254-18.64594,14.92149-27.99784C140.4115,332.37416,175.315,323.388,202.901,330.949a109.03977,109.03977,0,0,1,27.34573,12.053c23.008,13.97815,47.41948,22.85,74.48928,23.17405,24.9866.29914,48.37436-6.451,71.19164-16.27146,16.23144-6.98589,32.63292-14.071,49.61447-18.69512,24.54224-6.6829,45.54368,1.4411,62.33413,20.38042,18.23218,20.56554,27.86274,45.32906,34.28212,71.56824,9.09773,37.187,13.41544,74.90479,10.96527,113.17919-1.53286,23.94487-10.15749,44.73585-30.13723,59.40583-14.47957,10.63155-31.12443,13.56541-48.75335,13.88123-41.211.73822-82.41181,2.04609-123.6156,3.16638a12.20467,12.20467,0,0,0-2.96472.85613Z" transform="translate(0 -9.9752)"/><path d="M623.622,268.69162c-.66642,4.1994-1.21584,8.42138-2.01955,12.59425-3.33209,17.29868-12.81827,26.38856-30.398,28.29151a271.706,271.706,0,0,1-27.349,1.27939c-24.36318.16646-48.72826.07961-73.09255.04911-17.7283-.0222-35.45877.01879-53.18323-.2738a47.12469,47.12469,0,0,1-12.63539-2.18423c-5.357-1.6157-7.13723-5.09-5.51586-10.42755a43.73155,43.73155,0,0,1,4.42434-9.7523c17.77776-29.46625,23.5187-61.22865,18.51289-95.13854-.75572-5.11924-1.03861-10.30852-1.68154-16.91893,15.08894,5.67538,29.8611,10.04171,43.53782,16.67411,17.47156,8.47267,34.181,9.41987,51.41885.47124,10.37673-5.38688,21.05343-9.83135,32.82172-11.26905,19.31913-2.36018,35.05183,5.62769,44.17074,22.78059,6.07645,11.43,8.73739,23.81,9.96413,36.58152.18341,1.90957.67542,3.7894,1.02469,5.683Z" transform="translate(0 -9.9752)"/><path d="M127.46985,9.9752c6.10627,1.0304,12.29305,1.72031,18.30565,3.14673,37.64315,8.93037,64.993,44.96,63.30075,83.15217-1.72721,38.98083-31.94269,72.91477-70.17079,78.80637-45.69971,7.04311-87.3973-24.34721-94.04563-70.79836-6.39552-44.68485,25.90758-87.2624,70.59438-93.059,2.93355-.38053,5.85813-.83035,8.78689-1.24793Z" transform="translate(0 -9.9752)"/><path d="M309.13274,94.95548c68.61886.00177,121.70395,53.37831,121.83986,122.5088.13539,68.85846-53.54984,121.41342-123.851,121.5059-67.33356.08856-123.117-57.90721-121.96483-123.223C186.32923,149.28317,241.0776,94.95371,309.13274,94.95548Z" transform="translate(0 -9.9752)"/><path d="M578.9434,94.13346a81.85608,81.85608,0,0,1-82.29259,82.397c-45.06661.05678-82.87581-37.16575-82.89794-81.61175-.02263-45.44483,37.46084-83.57122,82.27343-83.68455C541.33146,11.11961,578.90517,48.68528,578.9434,94.13346Z" transform="translate(0 -9.9752)"/><path d="M177.391,177.91337c-7.80808,47.5904-2.58836,90.75164,29.40611,128.86105-9.82716,1.4215-18.5777,3.64678-27.36205,3.78995-35.85139.58433-71.713.57923-107.57113.68332-9.85486.02862-19.71983-.10784-29.56445-.53327C18.33872,309.679,6.032,298.69933,1.69038,275.03125c-5.37613-29.30789,2.5405-55.92089,17.10051-80.82638,6.70052-11.46149,17.887-16.40959,30.93929-12.98663a277.17165,277.17165,0,0,1,39.096,13.02763c16.769,7.20518,32.4129,7.60319,49.01138-.76434C150.06279,187.31862,163.3797,183.3282,177.391,177.91337Z" transform="translate(0 -9.9752)"/></svg>