<svg xmlns="http://www.w3.org/2000/svg" viewBox="0 0 592.60386 592.58179"><defs><style>.a{fill:#4a4e4e;}.b{fill:#fff;}.c{fill:#1f2120;}</style></defs><path class="a" d="M608.113,312.00941c-.22222,164.96625-134.53134,296.90079-297.80829,296.08878C147.18385,607.287,14.6048,474.11635,15.51374,310.03766,16.41088,148.08984,148.34279,14.4738,313.83061,15.52631,476.57526,16.56137,608.13287,148.76251,608.113,312.00941Zm-197.50819,168.533c1.113.08158.98725-.78847,1.12107-1.45917.43817-2.01369.90593-4.02147,1.30765-6.04242.62122-3.12547,1.19134-6.26109,1.796-9.38992.18933-.97974-.09167-1.49657-1.17954-1.35916-.42684.05395-.86069.05034-1.29077.08107q-10.8347.77421-21.66919,1.55068c-7.3953.52927-14.78708,1.123-22.1892,1.52747-1.3374.07308-1.488.79878-1.83193,1.636-1.09846.46687-1.22382,1.5995-1.60657,2.50057-1.13367,2.66894-2.00829,5.45828-3.28806,8.05055-.67486,1.367-.66759,3.21752-2.34981,4.01342.39718-3.94214,1.44214-7.76623,2.13244-11.65517.56441-3.17974,1.21845-6.34356,1.804-9.36582a1.27726,1.27726,0,0,0-1.219-.31744c-5.18927.81033-10.36712,1.70515-15.57215,2.39527-1.26708.168-1.467.945-1.87187,1.7572a1.99553,1.99553,0,0,0-1.079,1.34527c-1.58274,3.97725-3.16435,7.95568-4.82266,11.90162-.37238.88607-.48244,2.05372-1.69322,2.38242a48.92135,48.92135,0,0,1,1.07105-6.88072c.724-4.243,1.54815-8.46886,2.3201-12.64486-.19685-.1278-.26822-.2142-.34206-.21639-5.53453-.1612-11.0212.57627-16.53185.86678-.853.045-.74663.83117-1.17563,1.18186a1.82352,1.82352,0,0,0-.924,1.194q-3.006,7.44-5.98993,14.88876a24.28679,24.28679,0,0,0-1.56492,4.64247c-.6871,3.71417-1.25227,7.45027-1.91326,11.16771-1.62433,9.13486-3.55831,18.20823-5.19571,27.3377a90.03784,90.03784,0,0,0-1.64368,9.12751c-1.873.41048-2.95739-.57919-3.6088-2.14925a6.33035,6.33035,0,0,1-.38079-3.57122c.37758-2.12743.69223-4.26777,1.13246-6.382q5.78827-27.7997,11.611-55.59212c.65871-3.15541.64174-3.15354-2.49509-2.87061-4.56659.41187-9.13474.80722-13.70082,1.22467-2.535.23178-2.79762.28011-2.9768,2.60182a1.76724,1.76724,0,0,1-.188.47909c-.99857.026-1.16361.7892-1.46329,1.53082q-3.57534,8.84739-7.22,17.66672c-.28315.68821-.42218,1.55684-1.45441,1.573a31.91216,31.91216,0,0,1-.1454-4.9089c-.26581-4.85457-.8318-9.64481-3.00858-14.08821a14.86149,14.86149,0,0,0-11.74116-8.73324,23.24166,23.24166,0,0,0-8.73654.47185c-6.18255,1.40728-11.22463,4.8266-15.69637,9.15942-7.25543,7.03-12.42476,15.45946-16.3034,24.71873-1.16493,2.78093-2.164,5.63133-3.23907,8.44992-1.103.15612-1.1457,1.1358-1.50273,1.89461-1.841,3.91293-3.10386,8.05407-4.76195,12.04328-1.47657,3.55251-3.43,6.95777-3.83107,10.93943a34.42678,34.42678,0,0,1-.30146,4.37625,52.30316,52.30316,0,0,0-.99105,12.08179,32.08923,32.08923,0,0,0,2.27444,11.85982c1.59113,4.0148,4.02407,7.43558,8.09257,9.39486,3.85174,1.85487,7.94184,1.6867,11.92873,1.01552,5.28494-.88972,9.88639-3.503,14.13214-6.7278a11.91922,11.91922,0,0,1,1.27662-.87228c1.03924-.59409,1.962-.6163,2.62193.58985a12.70492,12.70492,0,0,0,.86312,1.28964c2.31332,3.218,4.60794,6.44975,6.95891,9.64.95962,1.30226,1.83118,1.36582,2.69072.21,2.72393-3.66273,5.90541-6.95789,8.519-10.71032,1.37962-1.98092,2.10119-1.8378,3.14589.27253a14.23843,14.23843,0,0,0,11.82487,8.0973,27.96127,27.96127,0,0,0,9.27725-.43131,28.2899,28.2899,0,0,0,15.05837-8.55508,24.86163,24.86163,0,0,0,5.5922-8.596c1.258-3.66444,2.95922-7.17523,4.4-10.77991.20154-.50427,1.00533-1.21719-.07064-1.74309a1.44132,1.44132,0,0,1,.73671-1.05022c.2174-.09072.88.12021.33149-.48936q1.77763-3.6487,3.55533-7.29732c.68827.37964.53754.92528.41032,1.56394-.82188,4.12643-1.52347,8.27788-2.40158,12.3919-1.56118,7.31385-3.09835,14.6367-5.09909,21.847-.87564,3.15573-.74391,3.39312,2.58079,3.19069a9.19984,9.19984,0,0,0,1.03163-.09567,75.94167,75.94167,0,0,1,12.52341-1.42558c1.39862-.01123,2.38917-.38355,2.79623-1.73985.74492-2.48221,2.43342-4.5626,2.94514-7.15754a3.2612,3.2612,0,0,1,1.3644-2.22242c.81752.7655.5836,1.5888.5913,2.33782.02592,2.50872-.00514,5.01808.01409,7.52693.01954,2.55415.58118,3.11684,3.08556,2.7333,3.14533-.48169,6.33417-.61364,9.46177-1.08816,4.93894-.74952,9.92105-.98678,14.87262-1.35548,5.574-.41495,11.17789-.99306,16.79721-.63844.77556.049,1.55693.00012,2.33557.00647a4.39374,4.39374,0,0,0,4.55082-3.03374c1.80117-4.48222,3.909-8.84644,5.57472-13.37535.67429-1.83318,2.12658-3.39274,2.06266-5.49527a3.79238,3.79238,0,0,0,.2901-1.77132q.11053-6.99966.22683-13.99936c.03869-2.34283.04564-2.26-2.205-2.11826-4.99321.31459-9.97015.95934-14.98871.79976.03273-1.26838,1.133-1.9099,1.7462-2.80752,3.40532-4.98458,7.06139-9.802,10.35678-14.8559,1.96087-3.00725,4.59989-5.565,5.92933-9.00168a26.81426,26.81426,0,0,1,1.47773-4.11777c1.65656-2.75956,2.6763-5.78727,4.05979-8.65575a5.87032,5.87032,0,0,0,.83326-3.733ZM154.38609,291.38714a139.42282,139.42282,0,0,0,2.82825,28.4375c8.387,41.11158,29.5341,74.1497,63.68519,98.49075,30.12116,21.46876,63.92581,30.76815,100.87388,28.61862a154.36738,154.36738,0,0,0,40.12975-7.78681A157.52826,157.52826,0,0,0,468.76634,302.65029,149.848,149.848,0,0,0,466.11,258.47721q-14.23132-66.19088-71.48315-102.50972c-21.05371-13.33677-44.22366-20.7483-69.039-22.97206-2.5111-.225-2.18072-.39257-2.1837-2.46128-.00565-3.89732.05453-7.79589-.03159-11.69131a2.476,2.476,0,0,1,1.6866-2.73285,11.97739,11.97739,0,0,0,7.36364-11.296c.09478-4.41493.12339-8.83631-.00051-13.24973A12.29027,12.29027,0,0,0,320.267,79.18508c-5.62236-.19483-11.26245-.19062-16.88488.00572-7.189.251-12.17574,5.62182-12.21945,12.84486-.0241,3.98379.03258,7.96827-.013,11.95167-.06385,5.58,2.36332,9.66291,7.34553,12.11594a2.21167,2.21167,0,0,1,1.423,2.38589c-.05272,4.06986-.01015,8.14085-.02464,12.21134-.00739,2.076-.02725,2.07852-2.07494,2.27831a163.943,163.943,0,0,0-27.05245,4.81149C201.98263,156.44073,154.39028,218.646,154.38609,291.38714ZM441.49392,183.88026a14.1063,14.1063,0,0,0,10.12269-3.79493c2.5144-2.38127,4.97685-4.825,7.34693-7.3494a13.19783,13.19783,0,0,0-.31777-18.68189c-4.15053-3.92737-8.2125-7.961-12.1214-12.12792a13.26135,13.26135,0,0,0-19.06116-.15666q-3.23382,3.19644-6.43024,6.43065c-4.13886,4.19872-5.48353,9.08867-3.55844,14.74979.22657.66623.55306,1.24962-.12814,1.86967-1.04137.94789-.67752,2.0496-.18264,3.10006a13.76885,13.76885,0,0,0,2.72632,3.77479q4.471,4.53,8.9966,9.006a13.91845,13.91845,0,0,0,3.777,2.72194c1.06183.50506,2.12134.8672,3.09125-.16072a1.49648,1.49648,0,0,1,1.88293-.22525A10.70222,10.70222,0,0,0,441.49392,183.88026ZM185.049,138.58469a11.5489,11.5489,0,0,0-8.42924,3.43c-4.5561,4.50644-9.07218,9.05336-13.60007,13.58824a10.84739,10.84739,0,0,0-2.85025,4.8765c-1.39578,5.13625-.02837,9.58542,3.51857,13.40424,1.94355,2.0925,4.02675,4.05531,6.04723,6.07634,4.29665,4.29783,9.28974,5.82769,15.16722,3.79743.57567-.19883,1.103-.49673,1.657.06249,1.15158,1.16231,2.36139.70483,3.56546.08158a15.28046,15.28046,0,0,0,3.72017-2.80122q4.23932-4.211,8.44875-8.45207a14.63207,14.63207,0,0,0,3.15-4.41281c.39869-.91481.6785-1.82934-.212-2.61527-.722-.63724-.56951-1.32158-.30734-2.11179,1.854-5.58806.39414-10.39-3.58225-14.53382-2.03819-2.124-4.12881-4.19987-6.24712-6.24426A13.87651,13.87651,0,0,0,185.049,138.58469Zm142.56081-8.955c13.34351-5.66653,24.64891-22.52636,20.19746-41.68827a36.97068,36.97068,0,1,0-64.81957,31.64331,34.67432,34.67432,0,0,0,12.92072,10.14745c0-2.29235-.11644-4.10986.03312-5.90521a3.9632,3.9632,0,0,0-1.92183-3.84146,28.53524,28.53524,0,0,1-11.6066-20.6568,29.72,29.72,0,0,1,33.48111-32.35752c19.379,2.49686,31.12747,23.24742,23.32245,41.20227a29.26028,29.26028,0,0,1-10.2076,12.517,2.60843,2.60843,0,0,0-1.43088,2.49322C327.69422,125.24679,327.60981,127.3212,327.60981,129.62965Z" transform="translate(-15.50909 -15.52013)"/><path class="b" d="M154.38609,291.38714c.00419-72.74112,47.59654-134.94641,116.38016-153.59684a163.943,163.943,0,0,1,27.05245-4.81149c2.04769-.19979,2.06755-.20232,2.07494-2.27831.01449-4.07049-.02808-8.14148.02464-12.21134a2.21167,2.21167,0,0,0-1.423-2.38589c-4.98221-2.453-7.40938-6.53591-7.34553-12.11594.04558-3.9834-.0111-7.96788.013-11.95167.04371-7.223,5.03042-12.59383,12.21945-12.84486,5.62243-.19634,11.26252-.20055,16.88488-.00572a12.29027,12.29027,0,0,1,12.15525,12.37915c.1239,4.41342.09529,8.8348.00051,13.24973a11.97739,11.97739,0,0,1-7.36364,11.296,2.476,2.476,0,0,0-1.6866,2.73285c.08612,3.89542.02594,7.794.03159,11.69131.003,2.06871-.3274,2.23626,2.1837,2.46128,24.81534,2.22376,47.98529,9.63529,69.039,22.97206Q451.78521,192.17523,466.11,258.47721a149.848,149.848,0,0,1,2.65634,44.17308A157.52826,157.52826,0,0,1,361.90316,439.1472a154.36738,154.36738,0,0,1-40.12975,7.78681c-36.94807,2.14953-70.75272-7.14986-100.87388-28.61862-34.15109-24.341-55.2982-57.37917-63.68519-98.49075A139.42282,139.42282,0,0,1,154.38609,291.38714Zm28.36529-1.87238A129.02231,129.02231,0,0,0,440.734,293.80857c2.15642-72.43573-54.84862-130.43753-124.31485-132.89232A129.18265,129.18265,0,0,0,182.75138,289.51476ZM313.70481,98.08247c0,3.28713-.0072,6.57429.0059,9.86136a9.33765,9.33765,0,0,0,.14255,2.05975,2.67251,2.67251,0,0,0,2.82106,2.18057,2.6068,2.6068,0,0,0,2.62437-2.08574,9.49771,9.49771,0,0,0,.21166-2.31064q.02293-9.60181.00216-19.20371a9.81642,9.81642,0,0,0-.1501-2.05952,2.80878,2.80878,0,0,0-5.56729.1474,10.21377,10.21377,0,0,0-.087,1.80866Q313.69706,93.28151,313.70481,98.08247Zm13.90475-.00184q0-2.72415-.00067-5.44832c-.00326-1.90244.05668-3.80836-.03958-5.70624a2.852,2.852,0,0,0-2.59066-2.76309,2.96266,2.96266,0,0,0-3.046,2.60869,9.94584,9.94584,0,0,0-.03866,1.554q-.0028,9.85886.00488,19.7177a8.24871,8.24871,0,0,0,.15508,2.05416,2.74469,2.74469,0,0,0,2.90629,2.08459,2.68655,2.68655,0,0,0,2.59408-2.43,12.46665,12.46665,0,0,0,.05313-1.81268Q327.61363,103.01006,327.60956,98.08063Zm-25.98448.35913c0-3.54557.00575-7.09114-.00453-10.63667a3.62791,3.62791,0,0,0-.39395-2.25475,2.76739,2.76739,0,0,0-2.87454-1.33663,3.01516,3.01516,0,0,0-2.42137,3.23862q-.06572,10.766.002,21.53251c.01586,2.06522,1.23219,3.23944,2.96909,3.20049,1.74766-.0392,2.69083-1.15644,2.71278-3.36641C301.64891,105.35818,301.62369,101.89884,301.62508,98.43976Zm8.716-.13557q0-2.59461-.00054-5.18921c-.0033-2.07558.072-4.15576-.04289-6.22527a2.83606,2.83606,0,0,0-2.9014-2.73024,2.95238,2.95238,0,0,0-2.73669,2.64772,13.46311,13.46311,0,0,0-.04875,1.81356q-.0041,9.6.00174,19.20009a10.4859,10.4859,0,0,0,.09173,2.06833,2.80642,2.80642,0,0,0,3.99527,2.04325,3.01264,3.01264,0,0,0,1.65-2.99044C310.31864,105.39629,310.339,101.85015,310.341,98.30419Z" transform="translate(-15.50909 -15.52013)"/><path class="b" d="M323.53249,534.57887a1.44132,1.44132,0,0,0-.73671,1.05022c-.84477.97954-1.64057,2.00686-2.54209,2.93109-6.882,7.05527-15.27,9.95623-24.97036,8.47413a13.3812,13.3812,0,0,1-11.42082-9.65706c-.1055-.33083-.16707-.66845-.829-.67041-3.63243,4.714-7.45176,9.45272-11.58729,14.22181-3.46527-4.88912-7.05766-9.39265-10.23883-14.399-.78392.59252-1.46531,1.09932-2.138,1.61736a43.7358,43.7358,0,0,1-8.13456,5.04631,26.28108,26.28108,0,0,1-11.2619,2.62976c-6.69207-.00685-11.54451-3.02-14.57919-8.98156a21.88018,21.88018,0,0,1-1.527-3.84524,44.27281,44.27281,0,0,1-1.29017-15.92868,87.4566,87.4566,0,0,1,3.32135-16.72752c1.07505-2.81859,2.07416-5.669,3.23909-8.44992,3.87864-9.25927,9.048-17.68877,16.3034-24.71873,4.47174-4.33282,9.51382-7.75214,15.69637-9.15942a23.24166,23.24166,0,0,1,8.73654-.47185,14.86149,14.86149,0,0,1,11.74116,8.73324c2.17678,4.4434,2.74277,9.23364,3.00858,14.08821a31.91216,31.91216,0,0,0,.1454,4.9089c-.62,3.54876-.691,7.16061-1.32855,10.7154a126.75862,126.75862,0,0,1-3.43962,13.1662c-1.16177,2.4523-2.27622,4.92841-3.49579,7.35162-2.137,4.24623-2.16438,4.233,1.19451,7.63.054.05459.15818.05947.239.08755a56.77246,56.77246,0,0,0,5.63943,6.68812c1.534-11.35333,3.18872-22.35309,5.1794-33.29743,2.009-11.04477,4.0963-22.07526,6.14931-33.112a1.76724,1.76724,0,0,0,.188-.47909c.17918-2.32171.44178-2.37,2.9768-2.60182,4.56608-.41745,9.13423-.8128,13.70082-1.22467,3.13683-.28293,3.1538-.2848,2.49509,2.87061q-5.8026,27.7967-11.611,55.59212c-.44023,2.11426-.75488,4.2546-1.13246,6.382a6.33035,6.33035,0,0,0,.38079,3.57122c.65141,1.57006,1.73582,2.55973,3.60883,2.14922,2.18189-.30733,3.25241-1.986,3.98-3.70063a37.03882,37.03882,0,0,0,2.28479-6.72089c3.09543-14.50595,5.84538-29.07933,8.57686-43.65561.88855-4.74168,1.93652-9.46366,2.38988-14.281.429-.35069.32258-1.13691,1.17563-1.18186,5.51065-.29051,10.99732-1.028,16.53185-.86678.07384.00219.14521.08859.34206.21639-.772,4.176-1.59608,8.4019-2.3201,12.64486a48.92135,48.92135,0,0,0-1.07105,6.88072c-3.0955,15.59325-5.7985,31.26789-9.68367,46.69737q-1.77768,3.64866-3.5553,7.29732Q323.69824,534.33425,323.53249,534.57887Zm-78.60573-8.40431a10.9857,10.9857,0,0,0,7.04726-1.05841c1.56976-.71815,1.61179-.83567.77731-2.232-1.1954-2.00018-2.44824-3.96609-3.67652-5.94663-.02663-1.085.94254-1.363,1.57664-1.87244,3.4634-2.78246,7.14281-5.29613,10.38038-8.35962a1.049,1.049,0,0,1,1.5702.10559c.59251.61415.98827,1.425,1.88732,1.86166a7.90507,7.90507,0,0,0,.57605-1.11585,49.50441,49.50441,0,0,0,2.83966-17.52119,13.82009,13.82009,0,0,0-.73052-4.57592,4.83636,4.83636,0,0,0-4.95107-3.40152,12.73036,12.73036,0,0,0-3.06763.3956c-3.78491.93819-6.62,3.25231-9.05627,6.13805a42.576,42.576,0,0,0-8.31981,16.92529,34.1769,34.1769,0,0,0-2.15321,13.31163A7.20159,7.20159,0,0,0,244.92676,526.17456Z" transform="translate(-15.50909 -15.52013)"/><path class="b" d="M386.24005,523.67357c5.01856.15958,9.9955-.48517,14.98871-.79976,2.25069-.14179,2.24374-.22457,2.205,2.11826q-.11571,6.99966-.22683,13.99936a3.79238,3.79238,0,0,1-.2901,1.77132c-6.15115-.12453-12.29.15321-18.425.56016-8.98192.59581-17.948,1.3624-26.88349,2.46616-1.32706.16386-2.66252.25959-4.15453.4022V528.91851a5.29165,5.29165,0,0,1,1.26347-3.52177q5.18383-6.924,10.26229-13.92657a104.63043,104.63043,0,0,0,6.1272-8.585c5.19768-6.97686,10.39535-13.95372,15.88154-21.31787-7.77757.10531-14.82517,1.61387-22.13042,2.49417.62411-5.85,1.21754-11.41227,1.81094-16.97452.34393-.83719.49453-1.56289,1.83193-1.636,7.40212-.40442,14.7939-.9982,22.1892-1.52747q10.83454-.77543,21.66919-1.55068c.43008-.03073.86393-.02712,1.29077-.08107,1.08787-.13741,1.36887.37942,1.17954,1.35916-.60466,3.12883-1.17478,6.26445-1.796,9.38992-.40172,2.021-.86948,4.02873-1.30765,6.04242a3.10468,3.10468,0,0,0-1.12107,1.45917l.03847-.04016a2.52682,2.52682,0,0,0-.37273.35243q-14.59035,20.79774-29.16212,41.60855c-.3164.45222-.92315.87234-.48289,1.65047A28.673,28.673,0,0,0,386.24005,523.67357Z" transform="translate(-15.50909 -15.52013)"/><path class="c" d="M225.598,500.34008a87.4551,87.4551,0,0,0-3.32137,16.72752,44.27281,44.27281,0,0,0,1.29017,15.92868,21.88018,21.88018,0,0,0,1.527,3.84524c3.03468,5.96153,7.88712,8.97471,14.57919,8.98156a26.28108,26.28108,0,0,0,11.2619-2.62976,43.7358,43.7358,0,0,0,8.13456-5.04631c.67265-.518,1.354-1.02484,2.138-1.61736,3.18117,5.00635,6.77356,9.50988,10.23883,14.399,4.13553-4.76909,7.95486-9.50785,11.58729-14.22181.66191.002.72348.33958.829.67041a13.3812,13.3812,0,0,0,11.42082,9.65706c9.70033,1.4821,18.0884-1.41886,24.97036-8.47413.90152-.92423,1.69732-1.95155,2.54209-2.93109,1.076.5259.27218,1.23882.07064,1.74309-1.44075,3.60468-3.142,7.11547-4.4,10.77991a24.86163,24.86163,0,0,1-5.5922,8.596,28.2899,28.2899,0,0,1-15.05837,8.55508,27.96127,27.96127,0,0,1-9.27725.43131,14.23843,14.23843,0,0,1-11.82487-8.0973c-1.0447-2.11033-1.76627-2.25345-3.14589-.27253-2.61356,3.75243-5.795,7.04759-8.519,10.71032-.85954,1.15584-1.7311,1.09228-2.69072-.21-2.351-3.19024-4.64559-6.422-6.95891-9.64a12.70492,12.70492,0,0,1-.86312-1.28964c-.65994-1.20615-1.58269-1.18394-2.62193-.58985a11.91922,11.91922,0,0,0-1.27662.87228c-4.24575,3.22481-8.8472,5.83808-14.13214,6.7278-3.98689.67118-8.077.83935-11.92873-1.01552-4.0685-1.95928-6.50144-5.38006-8.09257-9.39486a32.08923,32.08923,0,0,1-2.27444-11.85982,52.30316,52.30316,0,0,1,.99105-12.08179,34.42678,34.42678,0,0,0,.30146-4.37625c.40107-3.98166,2.3545-7.38692,3.83107-10.93943,1.65809-3.98921,2.921-8.13035,4.76195-12.04328C224.45228,501.47588,224.49493,500.4962,225.598,500.34008Z" transform="translate(-15.50909 -15.52013)"/><path class="c" d="M353.45383,528.91851v15.27276c1.492-.14261,2.82747-.23834,4.15453-.4022,8.93552-1.10376,17.90157-1.87035,26.88349-2.46616,6.135-.40695,12.27388-.68469,18.425-.56016.06392,2.10253-1.38837,3.66209-2.06266,5.49527-1.66576,4.52891-3.77355,8.89313-5.57472,13.37535a4.39374,4.39374,0,0,1-4.55082,3.03374c-.77864-.00635-1.56.0425-2.33557-.00647-5.61932-.35462-11.22319.22349-16.79721.63844-4.95157.3687-9.93368.606-14.87262,1.35548-3.1276.47452-6.31644.60647-9.46177,1.08816-2.50438.38354-3.066-.17915-3.08556-2.7333-.01923-2.50885.01183-5.01821-.01409-7.52693-.0077-.749.22622-1.57232-.5913-2.33782a3.2612,3.2612,0,0,0-1.3644,2.22242c-.51172,2.59494-2.20022,4.67533-2.94514,7.15754-.40706,1.3563-1.39761,1.72862-2.79623,1.73985a75.94167,75.94167,0,0,0-12.52341,1.42558,9.19984,9.19984,0,0,1-1.03163.09567c-3.3247.20243-3.45643-.035-2.58079-3.19069,2.00074-7.21031,3.53791-14.53316,5.09909-21.847.87811-4.114,1.5797-8.26547,2.40158-12.3919.12722-.63866.27795-1.1843-.41032-1.56394,3.88517-15.42948,6.58817-31.10412,9.68367-46.69737,1.21078-.3287,1.32084-1.49635,1.69322-2.38242,1.65831-3.94594,3.23992-7.92437,4.82266-11.90162a1.99553,1.99553,0,0,1,1.079-1.34527c-.08329.77-.11546,1.54948-.25753,2.30845-1.9857,10.611-3.93874,21.22842-5.99559,31.82566-2.56668,13.22377-5.01726,26.47359-8.33822,39.53889-.567,2.23042-1.141,4.45906-1.70585,6.66557.35862.12871.52229.249.66975.23161,5.83574-.687,11.64714-1.592,17.51574-1.98.91652-.06071,1.05383-.5745,1.22553-1.32579.41888-1.833.27053-3.784,1.142-5.51994a1.03936,1.03936,0,0,0,.89956-.78c.63463-1.5994,1.2817-3.19652,2.00439-4.75728C352.19243,529.94966,352.25952,528.894,353.45383,528.91851Z" transform="translate(-15.50909 -15.52013)"/><path class="b" d="M441.49392,183.88026a10.70222,10.70222,0,0,1-3.856-.84391,1.49648,1.49648,0,0,0-1.88293.22525c-.96991,1.02792-2.02942.66578-3.09125.16072a13.91845,13.91845,0,0,1-3.777-2.72194q-4.53153-4.46938-8.9966-9.006a13.76885,13.76885,0,0,1-2.72632-3.77479c-.49488-1.05046-.85873-2.15217.18264-3.10006.6812-.62.35471-1.20344.12814-1.86967-1.92509-5.66112-.58042-10.55107,3.55844-14.74979q3.192-3.23814,6.43024-6.43065a13.26135,13.26135,0,0,1,19.06116.15666c3.9089,4.16688,7.97087,8.20055,12.1214,12.12792a13.19783,13.19783,0,0,1,.31777,18.68189c-2.37008,2.52443-4.83253,4.96813-7.34693,7.3494A14.1063,14.1063,0,0,1,441.49392,183.88026Z" transform="translate(-15.50909 -15.52013)"/><path class="b" d="M185.049,138.58469a13.87651,13.87651,0,0,1,10.04628,4.1456c2.11831,2.04439,4.20893,4.12027,6.24712,6.24426,3.97639,4.14378,5.43622,8.94576,3.58225,14.53382-.26217.79021-.41469,1.47455.30734,2.11179.89045.78593.61064,1.70046.212,2.61527a14.63207,14.63207,0,0,1-3.15,4.41281q-4.205,4.24521-8.44875,8.45207a15.28046,15.28046,0,0,1-3.72017,2.80122c-1.20407.62325-2.41388,1.08073-3.56546-.08158-.55407-.55922-1.08138-.26132-1.657-.06249-5.87748,2.03026-10.87057.5004-15.16722-3.79743-2.02048-2.021-4.10368-3.98384-6.04723-6.07634-3.54694-3.81882-4.91435-8.268-3.51857-13.40424a10.84739,10.84739,0,0,1,2.85025-4.8765c4.52789-4.53488,9.044-9.0818,13.60007-13.58824A11.5489,11.5489,0,0,1,185.049,138.58469Z" transform="translate(-15.50909 -15.52013)"/><path class="b" d="M348.95372,536.20993c-.87151,1.736-.72316,3.68689-1.142,5.51994-.1717.75129-.309,1.26508-1.22553,1.32579-5.8686.388-11.68,1.29306-17.51574,1.98-.14746.01738-.31113-.1029-.66975-.23161.56489-2.20651,1.13888-4.43515,1.70585-6.66557,3.321-13.0653,5.77154-26.31512,8.33822-39.53889,2.05685-10.59724,4.00989-21.21468,5.99559-31.82566.14207-.759.17424-1.53847.25753-2.30845.40486-.81217.60479-1.58919,1.87187-1.7572,5.205-.69012,10.38288-1.58494,15.57215-2.39527a1.27726,1.27726,0,0,1,1.219.31744c-.58554,3.02226-1.23958,6.18608-1.804,9.36582-.6903,3.88894-1.73526,7.713-2.13244,11.65517-1.46409,6.70645-2.82544,13.43273-3.90573,20.21335a1.34368,1.34368,0,0,0-.40886.9063c-1.36021,7.09-2.79752,14.16634-4.06216,21.27331C350.327,528.09454,349.2529,532.087,348.95372,536.20993Z" transform="translate(-15.50909 -15.52013)"/><path class="b" d="M327.60981,129.62965c0-2.30845.08441-4.38286-.03162-6.446a2.60843,2.60843,0,0,1,1.43088-2.49322,29.26028,29.26028,0,0,0,10.2076-12.517c7.805-17.95485-3.94341-38.70541-23.32245-41.20227a29.72,29.72,0,0,0-33.48111,32.35752,28.53524,28.53524,0,0,0,11.6066,20.6568,3.9632,3.9632,0,0,1,1.92183,3.84146c-.14956,1.79535-.03312,3.61286-.03312,5.90521a34.67432,34.67432,0,0,1-12.92072-10.14745,36.97435,36.97435,0,1,1,64.81957-31.64331C352.25872,107.10329,340.95332,123.96312,327.60981,129.62965Z" transform="translate(-15.50909 -15.52013)"/><path class="c" d="M355.51868,501.86482c1.08029-6.78062,2.44164-13.5069,3.90573-20.21335,1.68222-.7959,1.67495-2.64645,2.34981-4.01342,1.27977-2.59227,2.15439-5.38161,3.28806-8.05055.38275-.90107.50811-2.0337,1.60657-2.50057-.5934,5.56225-1.18683,11.12454-1.81094,16.97452,7.30525-.8803,14.35285-2.38886,22.13042-2.49417-5.48619,7.36415-10.68386,14.341-15.88154,21.31787-4.1557-.1891-8.19668.76145-12.26481,1.346a2.16372,2.16372,0,0,1-2.55957-1.08346C356.03009,502.71907,356.07722,502.115,355.51868,501.86482Z" transform="translate(-15.50909 -15.52013)"/><path class="c" d="M294.60616,464.5c-2.053,11.03674-4.14035,22.06723-6.14931,33.112-1.99068,10.94434-3.64537,21.9441-5.1794,33.29743a56.77246,56.77246,0,0,1-5.63943-6.68812c.86752-4.32116,1.75844-8.6379,2.579-12.96793.1342-.7081.28093-1.55782-.51674-2.10126a126.75862,126.75862,0,0,0,3.43962-13.1662c.63752-3.55479.7086-7.16664,1.32855-10.7154,1.03223-.01614,1.17126-.88477,1.45441-1.573q3.63092-8.82477,7.22-17.66672C293.44255,465.28919,293.60759,464.526,294.60616,464.5Z" transform="translate(-15.50909 -15.52013)"/><path class="c" d="M322.44459,462.40149c-.45336,4.81733-1.50133,9.53931-2.38988,14.281-2.73148,14.57628-5.48143,29.14966-8.57686,43.65561a37.03882,37.03882,0,0,1-2.28479,6.72089c-.72757,1.7146-1.79809,3.3933-3.98,3.70063a90.03034,90.03034,0,0,1,1.64365-9.12748c1.6374-9.12947,3.57138-18.20284,5.19571-27.3377.661-3.71744,1.22616-7.45354,1.91326-11.16771a24.28679,24.28679,0,0,1,1.56492-4.64247q2.991-7.446,5.98993-14.88876A1.82352,1.82352,0,0,1,322.44459,462.40149Z" transform="translate(-15.50909 -15.52013)"/><path class="c" d="M386.24005,523.67357a28.673,28.673,0,0,1-5.61456.44013c-.44026-.77813.16649-1.19825.48289-1.65047q14.56509-20.81548,29.16212-41.60855a2.52682,2.52682,0,0,1,.37273-.35243,5.87057,5.87057,0,0,1-.83335,3.7327c-1.38349,2.86848-2.40323,5.89619-4.05979,8.65575a26.81426,26.81426,0,0,0-1.47773,4.11777c-1.32944,3.43673-3.96846,5.99443-5.92933,9.00168-3.29539,5.05386-6.95146,9.87132-10.35678,14.8559C387.37305,521.76367,386.27278,522.40519,386.24005,523.67357Z" transform="translate(-15.50909 -15.52013)"/><path class="c" d="M410.60476,480.54241a3.10468,3.10468,0,0,1,1.12107-1.45917C411.592,479.75394,411.71771,480.624,410.60476,480.54241Z" transform="translate(-15.50909 -15.52013)"/><path class="c" d="M323.53249,534.57887q.16581-.24465.33152-.48936C324.41253,534.69908,323.74989,534.48815,323.53249,534.57887Z" transform="translate(-15.50909 -15.52013)"/><path class="a" d="M182.75138,289.51476A129.18265,129.18265,0,0,1,316.41917,160.91625C385.8854,163.371,442.89044,221.37284,440.734,293.80857a129.02231,129.02231,0,0,1-257.98264-4.29381Zm105.36418,31.41231a1.77,1.77,0,0,0,1.11042.91969q6.01407,2.75832,12.04331,5.48359c1.73135.78,1.77075.76725,2.52681-1.13452,1.82045-4.57951,3.82316-9.10252,5.33172-13.78387.84708-2.62862,2.21221-3.5361,4.8453-3.817,7.69245-.82079,12.9849-5.11067,15.59189-12.29726,2.64835-7.30065,1.14344-14.02639-4.20893-19.67346a2.96744,2.96744,0,0,1-.70765-3.77209q16.18984-41.15719,32.26177-82.36077c.40543-1.03682.76192-2.09279,1.14122-3.13985a8.81736,8.81736,0,0,0-1.65044,2.36914Q339.56383,222.06174,322.7345,254.407c-2.59573,4.98806-5.21106,9.96611-7.76784,14.97407-.53485,1.04762-1.11213,1.61615-2.397,1.37528a11.84622,11.84622,0,0,0-3.85932.30675,18.99277,18.99277,0,0,0-15.92224,16.80761,18.344,18.344,0,0,0,3.62644,13.18977,2.63822,2.63822,0,0,1,.26184,3.4531c-1.033,1.69532-1.87482,3.50758-2.79109,5.27361C291.93907,313.53824,289.998,317.2919,288.11556,320.92707ZM202.64112,284.7538c-2.93884,0-5.87767-.00413-8.81649.00276a7.72731,7.72731,0,0,0-2.30591.22387,5.07871,5.07871,0,0,0-3.79,4.96305,4.94486,4.94486,0,0,0,3.76362,4.69677,8.61769,8.61769,0,0,0,2.55689.30507c5.70479-.006,11.40963-.01757,17.11429.01021a7.81632,7.81632,0,0,0,3.04665-.489,4.99929,4.99929,0,0,0,.50582-9.05462,6.4134,6.4134,0,0,0-3.2585-.66889C208.519,284.77587,205.57994,284.75392,202.64112,284.7538Zm217.42267,10.18756c3.02552,0,6.05133.02458,9.07647-.00869a5.443,5.443,0,0,0,4.91509-2.35343c2.1962-3.40238-.02588-7.55868-4.239-7.8001-2.24026-.1284-4.49377-.02525-6.74132-.02537-4.14929-.00023-8.29957-.05475-12.44757.01877-3.14583.05573-5.23263,2.02853-5.34888,4.84874-.12386,3.00531,2.04673,5.19469,5.44987,5.29895C413.83756,295.01548,416.9518,294.94044,420.06379,294.94136ZM400.81968,374.2232a5.94987,5.94987,0,0,0-2.05171-4.31154c-4.23034-4.202-8.43448-8.43025-12.65949-12.6376a9.38147,9.38147,0,0,0-1.57577-1.33546,5.09887,5.09887,0,0,0-6.20067.75922,4.97491,4.97491,0,0,0-.61376,6.20222,11.87862,11.87862,0,0,0,1.55055,1.73278q6.03944,6.05924,12.09949,12.09778a12.008,12.008,0,0,0,1.738,1.53977,4.61241,4.61241,0,0,0,5.138.17556A4.87312,4.87312,0,0,0,400.81968,374.2232ZM240.961,354.20705a4.8806,4.8806,0,0,0-3.74245,1.78858q-6.50968,6.5-13.00813,13.01122a8.17384,8.17384,0,0,0-.86534.96172,5.013,5.013,0,0,0,7.80647,6.289c2.85673-2.88453,5.74034-5.74242,8.60914-8.615,1.70894-1.71121,3.44873-3.39381,5.10434-5.15536a4.702,4.702,0,0,0,.806-5.5246A4.59247,4.59247,0,0,0,240.961,354.20705Zm75.73252,44.59027c0-3.28263-.01577-6.56537.00606-9.84788a4.76485,4.76485,0,0,0-2.35641-4.33552,4.94258,4.94258,0,0,0-7.58942,4.257c-.12082,6.47665-.07648,12.95752-.01811,19.43585a4.998,4.998,0,0,0,4.95426,5.2227c2.93163.02126,4.95915-2.13792,4.99708-5.40267C316.7231,405.0174,316.69478,401.90719,316.69351,398.79732Zm58.55376-178.77394a4.59717,4.59717,0,0,0,2.88529,4.69117,4.67294,4.67294,0,0,0,5.4978-.96015c4.66086-4.61866,9.32055-9.23946,13.91363-13.92514a4.83367,4.83367,0,0,0,.1572-6.9719,5.08951,5.08951,0,0,0-7.22021-.083c-4.69946,4.57817-9.29923,9.259-13.92051,13.91695A4.18082,4.18082,0,0,0,375.24727,220.02338ZM227.43959,201.41881a4.79516,4.79516,0,0,0-5.1232,4.78,5.05731,5.05731,0,0,0,1.52059,3.72626c4.591,4.56608,9.126,9.1892,13.75621,13.715a5.00666,5.00666,0,1,0,6.97714-7.1748c-4.46942-4.56458-9.0214-9.04832-13.54-13.56475A4.33552,4.33552,0,0,0,227.43959,201.41881Zm79.27885-19.14629c0,3.28186-.06439,6.56535.019,9.8451a5.03075,5.03075,0,0,0,5.0708,5.12964c2.7929-.05035,4.83275-2.2174,4.87611-5.28549.04514-3.19487.01158-6.39085.01142-9.58635-.00019-3.28186.056-6.565-.01929-9.8452a4.72076,4.72076,0,0,0-5.15745-4.8894,4.78412,4.78412,0,0,0-4.78232,5.04563C306.65979,175.88008,306.71942,179.077,306.71844,182.27252Zm51.71506,3.68368c-.0013-.029.00241.05446.00609.13793a.20789.20789,0,0,0,.00949-.06436C358.4381,185.96757,358.42215,185.90627,358.4335,185.9562Z" transform="translate(-15.50909 -15.52013)"/><path class="a" d="M313.70475,98.08247q-.0001-4.80093.00339-9.60187a10.21377,10.21377,0,0,1,.087-1.80866,2.80878,2.80878,0,0,1,5.56729-.1474,9.81642,9.81642,0,0,1,.1501,2.05952q.01564,9.60185-.00216,19.20371a9.49771,9.49771,0,0,1-.21166,2.31064,2.6068,2.6068,0,0,1-2.62437,2.08574,2.67251,2.67251,0,0,1-2.82106-2.18057,9.33765,9.33765,0,0,1-.14255-2.05975C313.69761,104.65676,313.70481,101.3696,313.70475,98.08247Z" transform="translate(-15.50909 -15.52013)"/><path class="a" d="M327.60953,98.08063q-.00011,4.92943-.002,9.85885a12.46665,12.46665,0,0,1-.05313,1.81268,2.68655,2.68655,0,0,1-2.59408,2.43,2.74469,2.74469,0,0,1-2.90629-2.08459,8.24871,8.24871,0,0,1-.15508-2.05416q-.0154-9.85882-.00488-19.7177a9.94584,9.94584,0,0,1,.03866-1.554,2.96266,2.96266,0,0,1,3.046-2.60869,2.852,2.852,0,0,1,2.59066,2.76309c.09626,1.89788.03632,3.8038.03958,5.70624Q327.61351,95.35646,327.60953,98.08063Z" transform="translate(-15.50909 -15.52013)"/><path class="a" d="M301.62439,98.43976c-.0007,3.45908.02452,6.91842-.0098,10.37716-.022,2.21-.96512,3.32721-2.71278,3.36641-1.7369.03895-2.95323-1.13527-2.96909-3.20049q-.08246-10.76575-.002-21.53251a3.01516,3.01516,0,0,1,2.42137-3.23862,2.76739,2.76739,0,0,1,2.87454,1.33663,3.62791,3.62791,0,0,1,.39395,2.25475C301.63083,91.34862,301.62508,94.89419,301.62439,98.43976Z" transform="translate(-15.50909 -15.52013)"/><path class="a" d="M310.34,98.30419c-.001,3.546-.02138,7.0921.00952,10.63779a3.01264,3.01264,0,0,1-1.65,2.99044,2.80642,2.80642,0,0,1-3.99527-2.04325,10.4859,10.4859,0,0,1-.09173-2.06833q-.00861-9.6-.00174-19.20009a13.46311,13.46311,0,0,1,.04875-1.81356,2.95238,2.95238,0,0,1,2.73669-2.64772,2.83606,2.83606,0,0,1,2.9014,2.73024c.11492,2.06951.03959,4.14969.04289,6.22527Q310.3446,95.70958,310.34,98.30419Z" transform="translate(-15.50909 -15.52013)"/><path class="c" d="M241.77976,505.51714a42.576,42.576,0,0,1,8.31981-16.92529c2.43632-2.88574,5.27136-5.19986,9.05627-6.13805a12.73036,12.73036,0,0,1,3.06763-.3956,4.83636,4.83636,0,0,1,4.95107,3.40152,13.82009,13.82009,0,0,1,.73052,4.57592,49.50441,49.50441,0,0,1-2.83966,17.52119,7.90507,7.90507,0,0,1-.57605,1.11585c-.899-.43662-1.29481-1.24751-1.88732-1.86166a1.049,1.049,0,0,0-1.5702-.10559,12.57536,12.57536,0,0,0-.67741-4.3188,4.94039,4.94039,0,0,0-4.8003-3.61182c-4.19005-.24021-7.4703,1.72973-10.47829,4.29495A12.00981,12.00981,0,0,1,241.77976,505.51714Z" transform="translate(-15.50909 -15.52013)"/><path class="a" d="M241.77976,505.51714a12.00981,12.00981,0,0,0,3.29607-2.44738c3.008-2.56522,6.28824-4.53516,10.47829-4.29495a4.94039,4.94039,0,0,1,4.8003,3.61182,12.57536,12.57536,0,0,1,.67741,4.3188c-3.23757,3.06349-6.917,5.57716-10.38038,8.35962-.6341.50947-1.60327.78743-1.57664,1.87244a1.81155,1.81155,0,0,0-1.15388,1.29344c-.96987,2.65856-2.30025,5.18128-2.99417,7.94363a7.20159,7.20159,0,0,1-5.30021-7.34579A34.1769,34.1769,0,0,1,241.77976,505.51714Z" transform="translate(-15.50909 -15.52013)"/><path class="c" d="M244.92676,526.17456c.69392-2.76235,2.0243-5.28507,2.99417-7.94363a1.81155,1.81155,0,0,1,1.15388-1.29344c1.22828,1.98054,2.48112,3.94645,3.67652,5.94663.83448,1.39636.79245,1.51388-.77731,2.232A10.9857,10.9857,0,0,1,244.92676,526.17456Z" transform="translate(-15.50909 -15.52013)"/><path class="a" d="M279.70033,509.15211c.79767.54344.65094,1.39316.51674,2.10126-.82061,4.33-1.71153,8.64677-2.579,12.96793-.08079-.02808-.185-.033-.239-.08755-3.35889-3.397-3.33151-3.38379-1.19451-7.63C277.42411,514.08052,278.53856,511.60441,279.70033,509.15211Z" transform="translate(-15.50909 -15.52013)"/><path class="a" d="M355.51868,501.86482c.55854.2502.51141.85425.76373,1.2829a2.16372,2.16372,0,0,0,2.55957,1.08346c4.06813-.58458,8.10911-1.53513,12.26481-1.346a104.63043,104.63043,0,0,1-6.1272,8.585q-5.06755,7.00952-10.26229,13.92657a5.29165,5.29165,0,0,0-1.26347,3.52177c-1.19431-.02455-1.2614,1.03115-1.59616,1.75416-.72269,1.56076-1.36976,3.15788-2.00439,4.75728a1.03936,1.03936,0,0,1-.89956.78c.29918-4.123,1.37325-8.11539,2.09394-12.1655,1.26464-7.107,2.702-14.18327,4.06216-21.27331A1.34368,1.34368,0,0,1,355.51868,501.86482Z" transform="translate(-15.50909 -15.52013)"/><path class="b" d="M288.11556,320.92707c1.8824-3.63517,3.82351-7.38883,5.76969-11.13989.91627-1.766,1.75806-3.57829,2.79109-5.27361a2.63822,2.63822,0,0,0-.26184-3.4531,18.344,18.344,0,0,1-3.62644-13.18977,18.99277,18.99277,0,0,1,15.92224-16.80761,11.84622,11.84622,0,0,1,3.85932-.30675c1.28491.24087,1.86219-.32766,2.397-1.37528,2.55678-5.008,5.17211-9.986,7.76784-14.97407q16.8315-32.3441,33.66648-64.68636a8.81736,8.81736,0,0,1,1.65044-2.36914c-.3793,1.04706-.73579,2.103-1.14122,3.13985q-16.10811,41.18932-32.26177,82.36077a2.96744,2.96744,0,0,0,.70765,3.77209c5.35237,5.64707,6.85728,12.37281,4.20893,19.67346-2.607,7.18659-7.89944,11.47647-15.59189,12.29726-2.63309.28094-3.99822,1.18842-4.8453,3.817-1.50856,4.68135-3.51127,9.20436-5.33172,13.78387-.75606,1.90177-.79546,1.91449-2.52681,1.13452q-6.03254-2.71773-12.04331-5.48359A1.77,1.77,0,0,1,288.11556,320.92707Zm34.30911-31.09a10.73138,10.73138,0,0,0-21.46213-.1375,10.71714,10.71714,0,0,0,10.82425,10.9295C317.60423,300.80627,322.4234,295.72643,322.42467,289.83706Z" transform="translate(-15.50909 -15.52013)"/><path class="b" d="M202.64112,284.75386c2.93882.00006,5.87789.022,8.81634-.01088a6.4134,6.4134,0,0,1,3.2585.66889,4.99929,4.99929,0,0,1-.50582,9.05462,7.81632,7.81632,0,0,1-3.04665.489c-5.70466-.02778-11.4095-.0162-17.11429-.01021a8.61769,8.61769,0,0,1-2.55689-.30507,4.94486,4.94486,0,0,1-3.76362-4.69677,5.07871,5.07871,0,0,1,3.79-4.96305,7.72731,7.72731,0,0,1,2.30591-.22387C196.76345,284.74967,199.70228,284.7538,202.64112,284.75386Z" transform="translate(-15.50909 -15.52013)"/><path class="b" d="M420.06379,294.94088c-3.112-.00044-6.22623.0746-9.3353-.02065-3.40314-.10426-5.57373-2.29364-5.44987-5.29895.11625-2.82021,2.20305-4.793,5.34888-4.84874,4.148-.07352,8.29828-.019,12.44757-.01877,2.24755.00012,4.50106-.103,6.74132.02537,4.21308.24142,6.43516,4.39772,4.239,7.8001a5.443,5.443,0,0,1-4.91509,2.35343C426.11512,294.96594,423.08931,294.94136,420.06379,294.94088Z" transform="translate(-15.50909 -15.52013)"/><path class="b" d="M400.81968,374.2232a4.87312,4.87312,0,0,1-2.57536,4.22273,4.61241,4.61241,0,0,1-5.138-.17556,12.008,12.008,0,0,1-1.738-1.53977q-6.06066-6.03792-12.09949-12.09778A11.87862,11.87862,0,0,1,377.71828,362.9a4.97491,4.97491,0,0,1,.61376-6.20222,5.09887,5.09887,0,0,1,6.20067-.75922,9.38147,9.38147,0,0,1,1.57577,1.33546c4.225,4.20735,8.42915,8.43565,12.65949,12.6376A5.94987,5.94987,0,0,1,400.81968,374.2232Z" transform="translate(-15.50909 -15.52013)"/><path class="b" d="M240.961,354.20705a4.59247,4.59247,0,0,1,4.71006,2.7555,4.702,4.702,0,0,1-.806,5.5246c-1.65561,1.76155-3.3954,3.44415-5.10434,5.15536-2.8688,2.87261-5.75241,5.7305-8.60914,8.615a5.013,5.013,0,0,1-7.80647-6.289,8.17384,8.17384,0,0,1,.86534-.96172q6.5-6.5097,13.00813-13.01122A4.8806,4.8806,0,0,1,240.961,354.20705Z" transform="translate(-15.50909 -15.52013)"/><path class="b" d="M316.69414,398.79732c.00064,3.10987.029,6.22008-.00717,9.32953-.03793,3.26475-2.06545,5.42393-4.99708,5.40267a4.998,4.998,0,0,1-4.95426-5.2227c-.05837-6.47833-.10271-12.9592.01811-19.43585a4.94258,4.94258,0,0,1,7.58942-4.257,4.76485,4.76485,0,0,1,2.35641,4.33552C316.67774,392.232,316.69351,395.51469,316.69414,398.79732Z" transform="translate(-15.50909 -15.52013)"/><path class="b" d="M375.24727,220.02338a4.18082,4.18082,0,0,1,1.3132-3.332c4.62128-4.658,9.221-9.33878,13.92051-13.91695a5.08951,5.08951,0,0,1,7.22021.083,4.83367,4.83367,0,0,1-.1572,6.9719c-4.59308,4.68568-9.25277,9.30648-13.91363,13.92514a4.67294,4.67294,0,0,1-5.4978.96015A4.59717,4.59717,0,0,1,375.24727,220.02338Z" transform="translate(-15.50909 -15.52013)"/><path class="b" d="M227.43959,201.41881a4.33552,4.33552,0,0,1,3.59077,1.48171c4.51857,4.51643,9.07055,9.00017,13.54,13.56475a5.00666,5.00666,0,1,1-6.97714,7.1748c-4.63022-4.52575-9.16518-9.14887-13.75621-13.715a5.05731,5.05731,0,0,1-1.52059-3.72626A4.79516,4.79516,0,0,1,227.43959,201.41881Z" transform="translate(-15.50909 -15.52013)"/><path class="b" d="M306.71891,182.27252c.00051-3.19549-.05912-6.39244.01776-9.58607a4.78412,4.78412,0,0,1,4.78232-5.04563,4.72076,4.72076,0,0,1,5.15745,4.8894c.07527,3.28016.0191,6.56334.01929,9.8452.00016,3.1955.03372,6.39148-.01142,9.58635-.04336,3.06809-2.08321,5.23514-4.87611,5.28549a5.03075,5.03075,0,0,1-5.0708-5.12964C306.65405,188.83787,306.71844,185.55438,306.71891,182.27252Z" transform="translate(-15.50909 -15.52013)"/><path class="b" d="M358.4335,185.9562c-.01135-.04993.0046.01137.01558.07357a.20789.20789,0,0,1-.00949.06436C358.43591,186.01066,358.4322,185.92719,358.4335,185.9562Z" transform="translate(-15.50909 -15.52013)"/><path class="a" d="M322.42467,289.83706c-.00127,5.88937-4.82044,10.96921-10.63788,10.792a10.71714,10.71714,0,0,1-10.82425-10.9295,10.73138,10.73138,0,0,1,21.46213.1375Zm-7.81685-.00691a3.00638,3.00638,0,0,0-2.93655-2.99406,2.98778,2.98778,0,0,0-.01294,5.9694A2.97011,2.97011,0,0,0,314.60782,289.83015Z" transform="translate(-15.50909 -15.52013)"/><path class="b" d="M314.60782,289.83015a2.97011,2.97011,0,0,1-2.94949,2.97534,2.98778,2.98778,0,0,1,.01294-5.9694A3.00638,3.00638,0,0,1,314.60782,289.83015Z" transform="translate(-15.50909 -15.52013)"/></svg>