<svg xmlns="http://www.w3.org/2000/svg" viewBox="0 0 522.30337 511.00538"><defs><style>.a{fill:#3e81ad;stroke:#000;stroke-miterlimit:10;stroke-width:6px;}</style></defs><path class="a" d="M386.438,534.64424a25.88846,25.88846,0,0,1-1.03907-3.983c-1.28844-32.32679-1.32754-32.53065,30.01087-39.27844,35.1345-7.56535,70.39505-14.5459,105.53018-22.10833,19.65911-4.23146,22.37076-9.46215,14.40956-27.786Q475.33493,303.35709,415.06215,165.33793c-5.97494-13.7154-13.50621-26.62807-10.84931-43.06059,1.54368-9.54752-8.6774-19.07952-18.62052-21.03978-9.7215-1.91656-20.4701,3.66072-25.21732,13.08489-5.04347,10.01228-3.91232,21.19269,5.618,27.15888,9.97312,6.24337,13.88489,15.44069,18.10574,25.10453q58.61961,134.21274,117.25729,268.4176c5.63247,12.90116,5.54365,12.94-7.89451,15.90965-30.91394,6.83164-30.97327,6.84581-38.24938-23.51812-2.46786-10.29874-4.15246-20.79848-6.93906-31.00331a40.86665,40.86665,0,0,1,.27751-24.21131c3.91-12.52411-3.89713-25.06437-15.70515-28.29866-12.65578-3.46654-25.359,3.72135-29.36056,16.53438-2.834,9.07438.43966,16.73137,6.81266,22.5128,5.20579,4.72249,7.37749,10.11172,8.78243,16.59122,3.41473,15.7486,7.31986,31.3903,10.94177,47.09479,2.798,12.13224,1.03018,15.6296-11.32668,18.66127-10.62076,2.60581-21.53532,4.015-32.75291,6.03108a52.04048,52.04048,0,0,1-.74988-5.99622q-.03828-101.168-.05967-202.33588a33.92892,33.92892,0,0,1,3.53813-14.51453c5.57064-12.23612,2.32217-23.76469-7.84073-30.44052-9.54979-6.27305-20.76623-5.05565-29.11075,3.15969-8.96185,8.8231-9.84185,19.96179-1.18868,31.06913,3.753,4.81746,4.89846,9.48526,4.89414,15.19153q-.09965,131.65626.09957,263.31233c.01887,7.70208-1.99482,11.26751-10.10687,13.19454-16.90272,4.0152-32.98842,4.75146-50.37481.70445C233.57224,530.34345,171.788,517.364,110.03344,504.303c-26.24127-5.5499-44.09828-19.08681-51.07442-46.11134-3.86969-14.99056,2.20467-27.27836,7.97954-39.62644,33.17451-70.93526,66.73735-141.689,100.15856-212.50894C182.235,173.979,197.87905,142.12609,212.28686,109.724c9.39508-21.12884,24.07225-33.38863,47.47555-33.82341,5.92955-.11016,9.14683-2.53225,11.83125-7.511,5.9068-10.95519,14.58645-20.16256,26.63345-22.83931,24.62773-5.47209,48.39378-6.88,66.01989,20.30931,4.45532,6.87257,8.5857,9.84625,17.293,9.99049,21.17093.35073,36.58335,10.87765,45.34,30.60153Q495.84185,261.785,564.85348,417.09612c5.42225,12.22328,11.22779,24.59048,8.48893,38.53706-4.79025,24.39259-18.485,40.77271-43.40621,46.44729C482.34291,512.9174,434.73463,523.68835,386.438,534.64424ZM130.59913,447.86718c.33848-2.55626.25-3.53657.60269-4.31789q64.52469-142.92349,129.04477-285.849a32.33117,32.33117,0,0,1,12.374-14.17677c10.3364-6.88534,13.1165-18.87646,8.04362-29.29781-4.913-10.09286-17.77843-15.71187-27.85941-12.16768-11.80051,4.14872-19.12881,14.96711-16.33926,26.8774,1.42483,6.08339.1249,10.679-2.14552,15.72222-12.09922,26.8757-24.11687,53.78817-36.2531,80.64711Q148.28706,335.4734,98.50865,445.64254c-6.859,15.25546-2.7285,22.42849,13.30067,25.545Q210.83538,490.44062,309.85,509.75272c20.54632,3.99625,25.55135-.1888,25.50023-21.36514q-.43492-180.1494-.91595-360.29873c-.0189-7.34321.18371-14.16113,4.58066-21.05984,6.45877-10.13371,3.241-22.42442-5.84659-29.58159-9.46536-7.45465-21.3749-6.88866-30.249,1.4376-8.8082,8.26445-10.486,19.4318-3.283,29.92865a27.56443,27.56443,0,0,1,5.36111,16.52354q.17637,145.50555.8923,291.00932c.07143,10.97913-3.90579,12.08931-13.06246,10.08-24.73648-5.42791-49.47552-11.06966-74.46942-15.00038-11.74346-1.84691-10.26848-5.6582-6.44794-13.8934,17.83276-38.43888,35.13892-77.1218,52.65655-115.70695,4.51385-9.94246,8.48939-19.65089,18.98274-25.9889,9.01874-5.44737,10.31158-19.56705,5.13138-28.72793-5.50292-9.73157-18.44435-14.3274-28.86631-10.25113-9.9605,3.8958-17.35846,15.20857-14.59821,25.41973,1.93187,7.14663-.11537,12.4815-2.79982,18.38918Q208.98066,334.249,175.7011,407.90189c-7.61123,16.8917-4.217,23.15689,13.98776,27.26249,36.39322,8.20757,72.707,16.792,109.21655,24.44344,9.99595,2.09485,7.9096,8.63048,7.76321,14.64929-.217,8.91832-7.09411,5.65622-11.28595,4.87439C240.624,468.91906,185.91994,458.41378,130.59913,447.86718Z" transform="translate(-54.73982 -39.3415)"/></svg>